<?xml version="1.0" encoding="UTF-8" standalone="no"?>
<!-- Created with Inkscape (http://www.inkscape.org/) -->

<svg
   xmlns:dc="http://purl.org/dc/elements/1.1/"
   xmlns:cc="http://creativecommons.org/ns#"
   xmlns:rdf="http://www.w3.org/1999/02/22-rdf-syntax-ns#"
   xmlns:svg="http://www.w3.org/2000/svg"
   xmlns="http://www.w3.org/2000/svg"
   xmlns:sodipodi="http://sodipodi.sourceforge.net/DTD/sodipodi-0.dtd"
   xmlns:inkscape="http://www.inkscape.org/namespaces/inkscape"
   width="26.53125mm"
   height="26.53125mm"
   viewBox="0 0 26.53125 26.53125"
   version="1.1"
   id="svg4102"
   inkscape:version="0.92.3 (2405546, 2018-03-11)"
   sodipodi:docname="isboxdrawn1.svg">
  <defs
     id="defs4097" />
  <sodipodi:namedview
     id="base"
     pagecolor="#ffffff"
     bordercolor="#666666"
     borderopacity="1.0"
     inkscape:pageopacity="0.0"
     inkscape:pageshadow="2"
     inkscape:zoom="5.6"
     inkscape:cx="78.567572"
     inkscape:cy="50.641397"
     inkscape:document-units="mm"
     showgrid="false"
     fit-margin-top="0"
     fit-margin-left="0"
     fit-margin-right="0"
     fit-margin-bottom="0"
     inkscape:window-width="3840"
     inkscape:window-height="2004"
     inkscape:window-x="-16"
     inkscape:window-y="-16"
     inkscape:window-maximized="1"
     inkscape:current-layer="svg4102" />
  <metadata
     id="metadata4100">
    <rdf:RDF>
      <cc:Work
         rdf:about="">
        <dc:format>image/svg+xml</dc:format>
        <dc:type
           rdf:resource="http://purl.org/dc/dcmitype/StillImage" />
        <dc:title />
      </cc:Work>
    </rdf:RDF>
  </metadata>
  <rect
     width="26.25"
     height="26.25"
     x="0.140625"
     y="0.140625"
     id="rect2987"
     style="color:#808080;display:inline;overflow:visible;visibility:visible;fill:#ffffff;fill-opacity:1;fill-rule:nonzero;stroke:#000000;stroke-width:0.28125;stroke-linecap:round;stroke-linejoin:round;stroke-miterlimit:4;stroke-dasharray:none;stroke-dashoffset:0;stroke-opacity:1;marker:none;enable-background:accumulate" />
  <path
     inkscape:connector-curvature="0"
     d="M 22.901762,22.588768 H 13.25808"
     id="path3724-8-7-9-8-1"
     style="fill:none;stroke:#808080;stroke-width:0.65600002;stroke-linecap:butt;stroke-linejoin:miter;stroke-miterlimit:4;stroke-dasharray:none;stroke-dashoffset:0;stroke-opacity:1" />
  <path
     inkscape:connector-curvature="0"
     d="M 22.917891,22.848191 V 13.204509"
     id="path3724-8-7-9-8-5"
     style="fill:none;stroke:#808080;stroke-width:0.65600002;stroke-linecap:butt;stroke-linejoin:miter;stroke-miterlimit:4;stroke-dasharray:none;stroke-dashoffset:0;stroke-opacity:1" />
  <path
     inkscape:connector-curvature="0"
     d="M 22.917891,13.204509 H 13.274209"
     id="path3724-8-7-9-8"
     style="fill:none;stroke:#808080;stroke-width:0.656;stroke-linecap:butt;stroke-linejoin:miter;stroke-miterlimit:4;stroke-dasharray:none;stroke-dashoffset:0;stroke-opacity:1" />
  <path
     inkscape:connector-curvature="0"
     d="m 13.274209,13.204509 v 9.643682"
     id="path3724-8"
     style="fill:none;stroke:#a00a0a;stroke-width:1.125;stroke-linecap:butt;stroke-linejoin:miter;stroke-miterlimit:4;stroke-dasharray:none;stroke-opacity:1" />
  <path
     inkscape:connector-curvature="0"
     d="m 4.8865036,3.7895896 a 1.2712229,1.2712229 0 1 1 -2.54244,0 1.2712229,1.2712229 0 1 1 2.54244,0 z"
     id="path2989"
     style="color:#808080;display:inline;overflow:visible;visibility:visible;fill:#000000;fill-opacity:1;fill-rule:nonzero;stroke:#000000;stroke-width:0.2700544;stroke-linecap:round;stroke-linejoin:round;stroke-miterlimit:4;stroke-dasharray:none;stroke-dashoffset:0;stroke-opacity:1;marker:none;enable-background:accumulate" />
  <path
     inkscape:connector-curvature="0"
     d="m 14.536844,3.7895896 a 1.271225,1.271225 0 1 1 -2.54245,0 1.271225,1.271225 0 1 1 2.54245,0 z"
     id="path2989-8"
     style="color:#808080;display:inline;overflow:visible;visibility:visible;fill:#000000;fill-opacity:1;fill-rule:nonzero;stroke:#000000;stroke-width:0.2700544;stroke-linecap:round;stroke-linejoin:round;stroke-miterlimit:4;stroke-dasharray:none;stroke-dashoffset:0;stroke-opacity:1;marker:none;enable-background:accumulate" />
  <path
     inkscape:connector-curvature="0"
     d="m 24.18717,3.7895896 a 1.271223,1.271223 0 1 1 -2.54244,0 1.271223,1.271223 0 1 1 2.54244,0 z"
     id="path2989-5"
     style="color:#808080;display:inline;overflow:visible;visibility:visible;fill:#000000;fill-opacity:1;fill-rule:nonzero;stroke:#000000;stroke-width:0.2700544;stroke-linecap:round;stroke-linejoin:round;stroke-miterlimit:4;stroke-dasharray:none;stroke-dashoffset:0;stroke-opacity:1;marker:none;enable-background:accumulate" />
  <path
     inkscape:connector-curvature="0"
     d="m 4.8865036,13.26562 a 1.2712229,1.2712229 0 1 1 -2.54244,0 1.2712229,1.2712229 0 1 1 2.54244,0 z"
     id="path2989-0"
     style="color:#808080;display:inline;overflow:visible;visibility:visible;fill:#000000;fill-opacity:1;fill-rule:nonzero;stroke:#000000;stroke-width:0.2700544;stroke-linecap:round;stroke-linejoin:round;stroke-miterlimit:4;stroke-dasharray:none;stroke-dashoffset:0;stroke-opacity:1;marker:none;enable-background:accumulate" />
  <path
     inkscape:connector-curvature="0"
     d="m 14.536844,13.26562 a 1.271225,1.271225 0 1 1 -2.54245,0 1.271225,1.271225 0 1 1 2.54245,0 z"
     id="path2989-6"
     style="color:#808080;display:inline;overflow:visible;visibility:visible;fill:#000000;fill-opacity:1;fill-rule:nonzero;stroke:#000000;stroke-width:0.2700544;stroke-linecap:round;stroke-linejoin:round;stroke-miterlimit:4;stroke-dasharray:none;stroke-dashoffset:0;stroke-opacity:1;marker:none;enable-background:accumulate" />
  <path
     inkscape:connector-curvature="0"
     d="m 24.18717,13.26562 a 1.271223,1.271223 0 1 1 -2.54244,0 1.271223,1.271223 0 1 1 2.54244,0 z"
     id="path2989-4"
     style="color:#808080;display:inline;overflow:visible;visibility:visible;fill:#000000;fill-opacity:1;fill-rule:nonzero;stroke:#000000;stroke-width:0.2700544;stroke-linecap:round;stroke-linejoin:round;stroke-miterlimit:4;stroke-dasharray:none;stroke-dashoffset:0;stroke-opacity:1;marker:none;enable-background:accumulate" />
  <path
     inkscape:connector-curvature="0"
     d="m 4.8865036,22.74165 a 1.2712229,1.2712229 0 1 1 -2.54244,0 1.2712229,1.2712229 0 1 1 2.54244,0 z"
     id="path2989-62"
     style="color:#808080;display:inline;overflow:visible;visibility:visible;fill:#000000;fill-opacity:1;fill-rule:nonzero;stroke:#000000;stroke-width:0.2700544;stroke-linecap:round;stroke-linejoin:round;stroke-miterlimit:4;stroke-dasharray:none;stroke-dashoffset:0;stroke-opacity:1;marker:none;enable-background:accumulate" />
  <path
     inkscape:connector-curvature="0"
     d="m 14.536844,22.74165 a 1.271225,1.271225 0 1 1 -2.54245,0 1.271225,1.271225 0 1 1 2.54245,0 z"
     id="path2989-58"
     style="color:#808080;display:inline;overflow:visible;visibility:visible;fill:#000000;fill-opacity:1;fill-rule:nonzero;stroke:#000000;stroke-width:0.2700544;stroke-linecap:round;stroke-linejoin:round;stroke-miterlimit:4;stroke-dasharray:none;stroke-dashoffset:0;stroke-opacity:1;marker:none;enable-background:accumulate" />
  <path
     inkscape:connector-curvature="0"
     d="m 24.18717,22.74165 a 1.271223,1.271223 0 1 1 -2.54244,0 1.271223,1.271223 0 1 1 2.54244,0 z"
     id="path2989-628"
     style="color:#808080;display:inline;overflow:visible;visibility:visible;fill:#000000;fill-opacity:1;fill-rule:nonzero;stroke:#000000;stroke-width:0.2700544;stroke-linecap:round;stroke-linejoin:round;stroke-miterlimit:4;stroke-dasharray:none;stroke-dashoffset:0;stroke-opacity:1;marker:none;enable-background:accumulate" />
  <g
     aria-label="?"
     transform="matrix(0.26458333,0,0,0.26458333,0.04724703,1.839808)"
     inkscape:transform-center-x="-0.25985863"
     inkscape:transform-center-y="-0.8031994"
     style="font-style:normal;font-weight:normal;font-size:32px;line-height:1.25;font-family:sans-serif;text-align:center;letter-spacing:0px;word-spacing:0px;writing-mode:lr-tb;text-anchor:middle;fill:#a00a0a;fill-opacity:1;stroke:none"
     id="flowRoot5525">
    <path
       d="m 28.279298,67.208984 h 3.171875 v 3.96875 h -3.171875 z m 3.078125,-2.296875 h -2.984375 v -2.40625 q 0,-1.578125 0.4375,-2.59375 0.4375,-1.015625 1.84375,-2.359375 l 1.40625,-1.390625 q 0.890625,-0.828125 1.28125,-1.5625 0.40625,-0.734375 0.40625,-1.5 0,-1.390625 -1.03125,-2.25 -1.015625,-0.859375 -2.703125,-0.859375 -1.234375,0 -2.640625,0.546875 -1.390625,0.546875 -2.90625,1.59375 v -2.9375 q 1.46875,-0.890625 2.96875,-1.328125 1.515625,-0.4375 3.125,-0.4375 2.875,0 4.609375,1.515625 1.75,1.515625 1.75,4 0,1.1875 -0.5625,2.265625 -0.5625,1.0625 -1.96875,2.40625 l -1.375,1.34375 q -0.734375,0.734375 -1.046875,1.15625 -0.296875,0.40625 -0.421875,0.796875 -0.09375,0.328125 -0.140625,0.796875 -0.04687,0.46875 -0.04687,1.28125 z"
       style=""
       id="path5665" />
  </g>
  <g
     aria-label="?"
     transform="matrix(0.26458333,0,0,0.26458333,10.163647,1.8401771)"
     inkscape:transform-center-x="-0.25985863"
     inkscape:transform-center-y="-0.8031994"
     style="font-style:normal;font-weight:normal;font-size:32px;line-height:1.25;font-family:sans-serif;text-align:center;letter-spacing:0px;word-spacing:0px;writing-mode:lr-tb;text-anchor:middle;fill:#a00a0a;fill-opacity:1;stroke:none"
     id="flowRoot5525-2">
    <path
       d="m 28.279298,67.208984 h 3.171875 v 3.96875 h -3.171875 z m 3.078125,-2.296875 h -2.984375 v -2.40625 q 0,-1.578125 0.4375,-2.59375 0.4375,-1.015625 1.84375,-2.359375 l 1.40625,-1.390625 q 0.890625,-0.828125 1.28125,-1.5625 0.40625,-0.734375 0.40625,-1.5 0,-1.390625 -1.03125,-2.25 -1.015625,-0.859375 -2.703125,-0.859375 -1.234375,0 -2.640625,0.546875 -1.390625,0.546875 -2.90625,1.59375 v -2.9375 q 1.46875,-0.890625 2.96875,-1.328125 1.515625,-0.4375 3.125,-0.4375 2.875,0 4.609375,1.515625 1.75,1.515625 1.75,4 0,1.1875 -0.5625,2.265625 -0.5625,1.0625 -1.96875,2.40625 l -1.375,1.34375 q -0.734375,0.734375 -1.046875,1.15625 -0.296875,0.40625 -0.421875,0.796875 -0.09375,0.328125 -0.140625,0.796875 -0.04687,0.46875 -0.04687,1.28125 z"
       style=""
       id="path5668" />
  </g>
</svg>
